<svg xmlns="http://www.w3.org/2000/svg" viewBox="0 0 469 469" width="28" height="28">
  <path d="M427 229c1-30-34-87-88-141C286 35 230 0 199 0h-1c-8 0-15 3-20 8v1l-28 34C97 45 21 83 21 139c0 17 8 30 18 41L7 220c-3 3-7 8-7 17-1 26 27 72 73 117 44 44 89 73 115 73h1c9 0 14-4 17-6l212-172 1-1c5-4 7-11 8-19zM53 163c-6-6-10-14-10-24 0-36 46-64 88-72l-78 96z" fill="#000000"/>
  <path d="M174 47L70 176c24 13 56 16 69 16 23 0 38-1 54-5a21 21 0 0142 5c0 12-10 21-22 21-5 0-10-2-14-5-20 5-38 5-60 5-18 0-55-4-83-20l-33 41-2 4c0 16 23 57 67 101 43 43 84 66 100 66h3l189-152c-35-11-82-46-121-85s-75-86-85-121z" fill="#78909c"/>
  <path d="M353 241L185 373h-3c-17 0-57-22-101-64-29-28-48-55-58-74-1 1-2 1-2 3 0 16 23 57 67 101 43 43 84 66 100 66h3l189-152-27-12z" opacity=".1"/>
  <path d="M323 103c-54-54-103-82-124-82-2 0-4 0-5 2h-1c-8 9 13 62 81 130 68 67 121 88 130 80l1-5c1-20-27-70-82-125z" fill="#7cb342"/>
  <path d="M204 55l6-2c21 0 70 28 124 82 35 35 59 68 71 92 0-20-28-70-82-124S220 21 199 21c-2 0-4 0-5 2h-1c-3 4-1 17 9 37l2-5z" opacity=".1"/>
  <path d="M425 325c-4-6-14-6-18 0-7 10-44 65-44 91a53 53 0 00106 0c0-26-37-81-44-91z" fill="#000000"/>
  <path d="M416 448c-18 0-32-14-32-32 0-12 17-42 32-66 15 24 32 54 32 66 0 18-14 32-32 32z" fill="#7cb342"/>
  <path d="M421 358c7 14 12 26 12 32a32 32 0 01-49 27 32 32 0 0064-1c0-10-13-35-27-58z" opacity="0.1"/>
</svg>
