<svg xmlns="http://www.w3.org/2000/svg" viewBox="0 0 469 469" width="28" height="28">
  <path d="M457 162L318 23c-8-8-19-12-31-12-11 0-21 4-29 12L13 269a42 42 0 000 60l114 114c10 10 23 16 37 16h34c14 0 28-6 38-16l221-221a42 42 0 000-60z" fill="#000000"/>
  <path d="M221 428c-6 6-14 9-23 9h-34c-8 0-16-3-22-9L28 314a21 21 0 010-30l94-95 169 169-70 70z" fill="#f2f2f2"/>
  <path d="M442 207L306 343 137 174 273 38a21 21 0 0130 0l139 139a21 21 0 010 30z" fill="#0288d1"/>
  <path d="M221 428c-6 6-14 9-23 9h-34c-8 0-16-3-22-9L28 314a21 21 0 010-30l94-95 169 169-70 70z" fill="#f2f2f2"/>
  <path d="M245 349a85 85 0 01-60 24h-8c-22 0-44-9-59-24l-78-78-12 13a21 21 0 000 30l114 114c6 6 14 9 22 9h34c9 0 17-3 23-9l70-70-28-28-18 19zM429 164L278 315l28 28 136-136a21 21 0 000-30l-13-13z" opacity=".1"/>
</svg>
