<svg xmlns="http://www.w3.org/2000/svg" viewBox="0 0 469 469" width="28" height="28">
	<path d="M457 76l-64-64a44 44 0 00-61 0L46 302l-3 4L0 456a11 11 0 0014 13l149-43 5-2 289-287a42 42 0 000-61z" fill="#000000"/>
	<g fill="#ffca28">
		<path d="M120 334l-15-29c-1-4-5-6-9-6H79L286 90l39 39-205 205zM165 364l-30-15 205-205 40 39-209 207v-17c0-4-3-7-6-9z"/>
	</g>
	<path d="M348 28c8-8 22-8 30 0l64 64a21 21 0 010 30l-47 46-94-93 47-47z" fill="#d32f2f"/>
	<path d="M113 362l-5-5-19-37H61l-23 83 29 28 82-23v-28l-36-18z" fill="#f2f2f2"/>
	<path fill="#666666" d="M67 431l-29-28 2-8-14 48 49-14z"/>
	<path d="M149 380l-36-18-3-3-84 84 123-35v-28zM410 60l-62 62 47 46 47-46a21 21 0 000-30l-32-32zM165 364l-30-15 205-205 40 39-209 207v-17c0-4-3-7-6-9z" opacity=".1"/>
</svg>