<svg xmlns="http://www.w3.org/2000/svg" viewBox="0 0 469 469" width="28" height="28">
  <path d="M469 79a79 79 0 00-134-56l-74 74-8-9c-4-4-11-4-15 0l-43 43c-4 4-4 11 0 15l14 14L58 311a53 53 0 00-15 37c0 15-5 28-12 40L2 431c-3 5-2 10 1 14l21 21a11 11 0 0014 2l45-31c11-7 23-10 36-10 14 0 28-6 38-17 32-34 125-124 152-150l14 14a11 11 0 0015 0l43-42c4-5 4-11 0-16l-9-8 74-74c15-15 23-34 23-55z" fill="#000000"/>
  <path d="M142 395c-6 7-14 10-23 10-17 0-34 5-48 15l-38 25-9-9 24-36c11-15 16-33 16-52 0-8 3-16 9-22l151-151 70 70c-27 27-120 116-152 150z" fill="#fafafa"/>
  <g fill="#546e7a">
    <path d="M358 224l-28 28-113-113 28-28zM357 193l-81-81 74-74a57 57 0 1181 81l-74 74z"/>
  </g>
  <path d="M224 175l-2 2 51 53c-29 29-126 126-160 164-6 7-15 11-25 11-17 0-35 5-50 16l-14 15 9 9 38-25c14-10 31-15 48-15 9 0 17-3 23-10 32-34 125-123 152-150l-70-70zM358 224l-27 27-21-21 27-28zM419 29a57 57 0 01-9 69l-74 74 21 21 74-74c11-11 17-25 17-40 0-22-12-40-29-50z" opacity=".1"/>
</svg>
