<svg xmlns="http://www.w3.org/2000/svg" viewBox="-8 -8 528 528" width="28" height="28">
  <path d="M138 472h90v40h-90zM284 472h90v40h-90zM61 472c-12 0-21-10-21-21v-20H0v20c0 33 27 61 61 61h20v-40H61zM471 431v20c0 11-9 21-21 21h-20v40h20c34 0 61-28 61-61v-20h-40zM138 1h90v40h-90zM284 1h90v40h-90zM61 0C27 0 0 28 0 61v20h40V61c0-11 9-21 21-21h20V0H61zM450 0h-20v40h20c12 0 21 10 21 21v20h40V61c0-33-27-61-61-61zM0 289h40v90H0zM0 143h40v90H0zM472 289h40v90h-40zM472 143h40v90h-40z" stroke="#000000" stroke-width="16" fill="#ffffff"/>
</svg>
