<svg xmlns="http://www.w3.org/2000/svg" viewBox="0 0 32 32" width="28" height="28">
  <g transform="scale(-1, 1) translate(-32, 0)">
    <path fill="#fdd331" d="M7.787 6.6c-2.707.541-3.145.98-3.687 3.687C3.56 7.581 3.121 7.142.414 6.6 3.121 6.06 3.56 5.621 4.1 2.914 4.642 5.621 5.081 6.06 7.787 6.6zM19.708 6.208c-2.3-1.531-2.917-1.531-5.214 0 1.531-2.3 1.531-2.917 0-5.214 2.3 1.531 2.917 1.531 5.214 0C18.176 3.291 18.176 3.911 19.708 6.208zM7.708 22.208c-2.3-1.531-2.917-1.531-5.214 0 1.531-2.3 1.531-2.917 0-5.214 2.3 1.531 2.917 1.531 5.214 0C6.176 19.291 6.176 19.911 7.708 22.208zM26.421 13.921c-2.044-1.363-2.6-1.363-4.641 0 1.363-2.044 1.363-2.6 0-4.641 2.044 1.363 2.6 1.363 4.641 0C25.058 11.325 25.058 11.877 26.421 13.921z"/>
    <rect width="5" height="26" x="17.601" y="7.601" fill="#575854" rx="2" ry="2" transform="rotate(-45 20.1 20.601)"/>
    <path fill="#afaeb3" d="M12.176,10.676h1a2,2,0,0,1,2,2v3a0,0,0,0,1,0,0h-5a0,0,0,0,1,0,0v-3A2,2,0,0,1,12.176,10.676Z" transform="rotate(-45 12.677 13.176)"/>
    <path d="M7.886,6.11c-2.515-.5-2.792-.779-3.295-3.294a.5.5,0,0,0-.98,0C3.108,5.33,2.831,5.607.316,6.11a.5.5,0,0,0,0,.98c2.515.5,2.792.779,3.294,3.294a.5.5,0,0,0,.98,0c.5-2.515.78-2.791,3.295-3.294a.5.5,0,0,0,0-.98ZM4.1,8.374A2.859,2.859,0,0,0,2.328,6.6,2.859,2.859,0,0,0,4.1,4.827,2.861,2.861,0,0,0,5.874,6.6,2.861,2.861,0,0,0,4.1,8.374Zm10.04-1.812a.5.5,0,0,0,.631.063C16.9,5.2,17.3,5.2,19.43,6.624a.5.5,0,0,0,.693-.693C18.7,3.8,18.7,3.405,20.124,1.271A.5.5,0,0,0,19.43.578C17.3,2,16.9,2,14.771.578a.5.5,0,0,0-.693.693c1.422,2.134,1.422,2.525,0,4.659A.5.5,0,0,0,14.141,6.562Zm1.706-4.215a2.862,2.862,0,0,0,2.508,0,2.86,2.86,0,0,0,0,2.507,2.862,2.862,0,0,0-2.508,0A2.861,2.861,0,0,0,15.847,2.347ZM8.061,16.641a.5.5,0,0,0-.631-.062C5.3,18,4.9,18,2.771,16.578a.5.5,0,0,0-.693.693c1.422,2.134,1.422,2.525,0,4.659a.5.5,0,0,0,.693.693C4.9,21.2,5.3,21.2,7.43,22.624a.5.5,0,0,0,.693-.693C6.7,19.8,6.7,19.405,8.124,17.271A.5.5,0,0,0,8.061,16.641ZM6.354,20.854a2.862,2.862,0,0,0-2.508,0,2.861,2.861,0,0,0,0-2.509,2.862,2.862,0,0,0,2.508,0A2.86,2.86,0,0,0,6.354,20.854Zm15.072-6.579a.5.5,0,0,0,.631.063c1.872-1.248,2.216-1.248,4.086,0a.5.5,0,0,0,.693-.693c-1.248-1.872-1.248-2.216,0-4.087a.5.5,0,0,0-.693-.693c-1.87,1.248-2.214,1.248-4.086,0a.5.5,0,0,0-.693.693c1.248,1.871,1.248,2.215,0,4.087A.5.5,0,0,0,21.427,14.275Zm1.662-3.687a2.521,2.521,0,0,0,2.024,0,2.52,2.52,0,0,0,0,2.024,2.514,2.514,0,0,0-2.025,0A2.52,2.52,0,0,0,23.089,10.589ZM30,26.258,16.566,12.824h0L14.444,10.7a2.558,2.558,0,0,0-3.535,0l-.708.707a2.5,2.5,0,0,0,0,3.536L25.758,30.5a2.5,2.5,0,0,0,3.535,0L30,29.793A2.5,2.5,0,0,0,30,26.258ZM10.908,14.237a1.5,1.5,0,0,1,0-2.122l.708-.707a1.5,1.5,0,0,1,2.121,0L15.5,13.176,12.676,16ZM29.293,29.086l-.708.707a1.536,1.536,0,0,1-2.121,0L13.383,16.712l2.829-2.829L29.293,26.965A1.5,1.5,0,0,1,29.293,29.086Z"/>
  </g>
</svg>