<svg xmlns="http://www.w3.org/2000/svg" viewBox="-8 -8 528 528" width="30" height="30">
	<g stroke="#000000" stroke-width="16" fill="#FFFFFF">
		<path d="M386.348,336.165c23.574-34.148,37.408-75.546,37.408-120.19c0-117.015-94.843-211.878-211.878-211.878 S0,98.959,0,215.974s94.843,211.878,211.878,211.878c48.849,0,93.8-16.572,129.637-44.338l124.388,124.388L512,461.812 L386.348,336.165z M211.878,382.217c-91.667,0-166.243-74.574-166.243-166.243c0-91.667,74.574-166.243,166.243-166.243 s166.243,74.574,166.243,166.243S303.545,382.217,211.878,382.217z"></path>
		<polygon points="234.695,196.417 234.695,114.924 189.06,114.924 189.06,196.417 107.569,196.417 107.569,242.052 189.06,242.052 189.06,323.543 234.695,323.543 234.695,242.052 316.187,242.052 316.187,196.417"></polygon>
	</g>
</svg>